# xmcd CD database file
#
# Track frame offsets:
#	150
#	20812
#	41037
#
# Disc length: 820 seconds
#
# Revision: 0
# Processed by: cddbd v1.5.1PL0 Copyright (c) Steve Scherf et al.
# Submitted via: CDex 1.51
#
DISCID=22033203
DTITLE=おおたか静流 - 夏の空に
DYEAR=1996
DGENRE=JPop
TTITLE0=夏の空に
TTITLE1=SAJA DREAM
TTITLE2=夏の空に（オリジナルカラオケ）
EXTD=YEAR: 1996
EXTT0=
EXTT1=
EXTT2=
PLAYORDER=
